# xmcd
#
# Track frame offsets: 
#        150
#        10993
#        23507
#        38260
#        50660
#        62361
#        72730
#        88849
#        99722
#        109359
#        123951
#        134234
#        144808
#        157182
#
# Disc length: 2267 seconds
#
# Revision: 0
# Processed by: cddbd v1.5.2PL0 Copyright (c) Steve Scherf et al.
# Submitted via: ExactAudioCopy v0.99pb5
#
DISCID=c308d90e
DTITLE=Aretha Franklin - A Force Of Nature Aretha Franklin: The Atlant
DTITLE=ic Years
DYEAR=2009
DGENRE=Soul
TTITLE0=Respect
TTITLE1=Chain of Fools
TTITLE2=Son of a Preacher Man
TTITLE3=(You Make Me Feel Like) A Natural Woman
TTITLE4=Ain't Nobody (Gonna Turn Me Around)
TTITLE5=Think
TTITLE6=You're All I Need To Get By
TTITLE7=Since You've Been Gone (Sweet Sweet Baby)
TTITLE8=Good Times
TTITLE9=Do Right Woman - Do Right Man
TTITLE10=You're a Sweet Sweet Man
TTITLE11=The House That Jack Built
TTITLE12=See Saw
TTITLE13=The Weight
EXTD=
EXTT0=
EXTT1=
EXTT2=
EXTT3=
EXTT4=
EXTT5=
EXTT6=
EXTT7=
EXTT8=
EXTT9=
EXTT10=
EXTT11=
EXTT12=
EXTT13=
PLAYORDER=
